<svg xmlns="http://www.w3.org/2000/svg" width="50" height="36" viewBox="0 0 50 36">
    <g fill="none" fill-rule="evenodd">
        <path fill="#353636" d="M0 36h50V0H0v36zm.2-.221h49.595V.22H.2V35.78zm49.718 0v.217-.217z"/>
        <path fill="#D62424" d="M0 36h50V0H0z"/>
        <path fill="#FBDC00" d="M16.96 15.59l-.08 1.297 1.04.48-1.08.336L16.76 19l-.56-1.105-1.08.337.72-1.009-.6-1.104 1.04.48.68-1.009zm2.6-4.034l.36 1.25H21l-.88.767.32 1.25-.88-.77-.88.77.36-1.25-.88-.768h1.08l.32-1.249zm1.12-5.282l-.48 1.153.76.912-1.08-.192L19.4 9.3l-.16-1.297-1.08-.192.96-.577-.16-1.296.76.912.96-.576zM16.96 2l-.04 1.345 1 .48-1.08.336-.04 1.297-.6-1.105-1.04.288.68-1.008-.56-1.105 1 .529L16.96 2zM8.32 4.017l1.04 3.794h3.32L10 10.116l1 3.794-2.68-2.354-2.68 2.354 1.04-3.794L4 7.81h3.32l1-3.794z"/>
    </g>
</svg>
