<svg xmlns="http://www.w3.org/2000/svg" width="50" height="34" viewBox="0 0 50 34">
    <g fill="none" fill-rule="evenodd">
        <path fill="#353636" d="M0 33.45h50V0H0v33.45zm.2-.206h49.595V.205H.2v33.04zm49.677-.041v.123-.123z"/>
        <path fill="#FFF" d="M0 25.784h49.826v-2.613H0z"/>
        <path fill="#C22045" d="M0 23.17h49.826v-2.613H0z"/>
        <path fill="#FFF" d="M0 30.836h49.826v-2.613H0z"/>
        <path fill="#C22045" d="M0 28.165h49.826V25.61H0v2.555zm0 5.11h49.826V30.72H0v2.555z"/>
        <path fill="#FFF" d="M0 20.557h49.826v-2.613H0z"/>
        <path fill="#C22045" d="M0 12.892h49.826v-2.613H0z"/>
        <path fill="#FFF" d="M0 5.226h49.826V2.613H0z"/>
        <path fill="#C22045" d="M0 2.732h49.826V.174H0v2.558zm0 15.386h49.826v-2.557H0v2.557zM0 7.847h49.826V5.289H0v2.558z"/>
        <path fill="#FFF" d="M0 15.505h49.826V12.95H0v2.555zm0-5.11h49.826V7.84H0v2.555z"/>
        <path fill="#004981" d="M0 18.118h19.86V.174H0z"/>
        <path fill="#FFF" d="M18.377 15.964l.163.41h.45l-.368.288.122.411-.367-.246-.327.246.122-.41-.367-.288h.45l.122-.411zm0-3.658l.163.452h.45l-.368.247.122.41-.367-.246-.327.246.122-.41-.367-.247h.45l.122-.452zm0-3.781l.163.41h.45l-.368.248.122.452-.367-.288-.327.288.122-.452-.367-.247h.45l.122-.411zm0-3.74l.163.411h.45l-.368.288.122.41-.367-.246-.327.247.122-.411-.367-.288h.45l.122-.41zm0-3.74l.163.452h.45l-.368.247.122.41-.367-.246-.327.247.122-.411-.367-.247h.45l.122-.452zM3.425 14.032l.123.41h.45l-.368.248.163.452-.368-.288-.367.288.122-.452-.327-.247h.41l.162-.411zm.041-3.74l.123.411h.45l-.368.288.122.41-.327-.246-.367.247.122-.411-.368-.288h.45l.163-.41zm0-3.78l.164.451h.449l-.368.247.123.41-.368-.246-.327.247.123-.411-.368-.247h.45l.122-.452zm0-3.823l.164.411h.449l-.368.288.123.41-.368-.246-.327.247.123-.411-.368-.288h.45l.122-.41zm3.268 11.384l.123.452h.45l-.328.247.123.41-.368-.246-.367.247.163-.411-.368-.247h.45l.122-.452zm.041-3.699l.123.411h.45l-.369.247.164.452-.368-.288-.368.288.123-.452-.327-.247h.45l.122-.41zm.041-3.78l.123.41h.449l-.368.288.123.411-.327-.247-.368.247.123-.411-.368-.288h.45l.163-.41zm0-3.823l.123.411h.449l-.368.247.123.452-.327-.288-.368.288.123-.452-.368-.247h.45l.163-.41zm3.227 11.343l.164.452h.45l-.369.247.123.41-.368-.246-.327.247.123-.411-.368-.247h.45l.122-.452zm.041-3.699l.163.411h.41l-.328.247.123.452-.368-.288-.368.288.164-.452-.368-.247h.45l.122-.41zm.04-3.78l.123.41h.45l-.368.288.164.411-.368-.246-.368.246.164-.41-.368-.288h.45l.122-.412zm0-3.864l.123.452h.45l-.368.247.164.411-.368-.247-.368.247.164-.411-.368-.247h.45l.122-.452zm3.269 11.507l.123.412h.449l-.368.246.123.452-.327-.288-.368.288.123-.452-.368-.246h.45l.163-.412zm0-3.74l.163.412h.45l-.368.287.123.411-.368-.246-.327.246.123-.41-.368-.288h.45l.122-.411zm.04-3.78l.164.452h.409l-.327.246.122.411-.367-.246-.368.246.164-.41-.368-.247h.45l.122-.452zm0-3.822l.164.41h.409l-.327.247.122.452-.367-.287-.368.287.164-.452-.368-.246h.45l.122-.411zm3.269 11.342l.123.412h.449l-.368.246.164.452-.368-.288-.368.288.123-.452-.327-.246h.45l.122-.412zm.04-3.74l.123.412h.45l-.368.287.163.411-.367-.246-.368.246.123-.41-.368-.288h.45l.163-.411zm.042-3.78l.122.452h.45l-.368.246.122.411-.326-.246-.368.246.123-.41-.368-.247h.45l.163-.452zm0-3.822l.122.41h.45l-.368.247.122.452-.326-.287-.368.287.123-.452-.368-.246h.45l.163-.411zM1.79 15.964l.123.41h.45l-.368.288.163.411-.368-.246-.367.246.163-.41-.367-.288h.449l.122-.411zm0-3.658l.123.452h.45l-.368.247.163.41-.368-.246-.367.246.163-.41-.367-.247h.449l.122-.452zm0-3.781l.123.41h.45l-.368.248.163.452-.368-.288-.367.288.163-.452-.367-.247h.449l.122-.411zm0-3.74l.123.411h.45l-.368.288.163.41-.368-.246-.367.247.163-.411-.367-.288h.449l.122-.41zm0-3.74l.123.452h.45l-.368.247.163.41-.368-.246-.367.247.163-.411-.367-.247h.449l.122-.452zm3.31 14.919l.163.41h.408l-.327.288.123.411-.368-.246-.367.246.163-.41-.368-.288h.45l.122-.411zm0-3.658l.163.452h.408l-.327.247.123.41-.368-.246-.367.246.163-.41-.368-.247h.45l.122-.452zm0-3.781l.163.41h.408l-.327.248.123.452-.368-.288-.367.288.163-.452-.368-.247h.45l.122-.411zm0-3.74l.163.411h.408l-.327.288.123.41-.368-.246-.367.247.163-.411-.368-.288h.45l.122-.41zm0-3.74l.163.452h.408l-.327.247.123.41-.368-.246-.367.247.163-.411-.368-.247h.45l.122-.452zM8.45 15.964l.123.41h.449l-.368.288.123.411-.327-.246-.368.246.123-.41-.368-.288h.45l.163-.411zm0-3.658l.123.452h.449l-.368.247.123.41-.327-.246-.368.246.123-.41-.368-.247h.45l.163-.452zm0-3.781l.123.41h.449l-.368.248.123.452-.327-.288-.368.288.123-.452-.368-.247h.45l.163-.411zm0-3.74l.123.411h.449l-.368.288.123.41-.327-.246-.368.247.123-.411-.368-.288h.45l.163-.41zm0-3.74l.123.452h.449l-.368.247.123.41-.327-.246-.368.247.123-.411-.368-.247h.45l.163-.452zm3.309 14.919l.123.41h.449l-.368.288.164.411-.368-.246-.368.246.123-.41-.327-.288h.409l.163-.411zm0-3.658l.123.452h.449l-.368.247.164.41-.368-.246-.368.246.123-.41-.327-.247h.409l.163-.452zm0-3.781l.123.41h.449l-.368.248.164.452-.368-.288-.368.288.123-.452-.327-.247h.409l.163-.411zm0-3.74l.123.411h.449l-.368.288.164.41-.368-.246-.368.247.123-.411-.327-.288h.409l.163-.41zm0-3.74l.123.452h.449l-.368.247.164.41-.368-.246-.368.247.123-.411-.327-.247h.409l.163-.452zm3.309 14.919l.122.41h.45l-.368.288.164.411-.368-.246-.368.246.164-.41-.368-.288h.45l.122-.411zm0-3.658l.122.452h.45l-.368.247.164.41-.368-.246-.368.246.164-.41-.368-.247h.45l.122-.452zm0-3.781l.122.41h.45l-.368.248.164.452-.368-.288-.368.288.164-.452-.368-.247h.45l.122-.411zm0-3.74l.122.411h.45l-.368.288.164.41-.368-.246-.368.247.164-.411-.368-.288h.45l.122-.41zm0-3.74l.122.452h.45l-.368.247.164.41-.368-.246-.368.247.164-.411-.368-.247h.45l.122-.452z"/>
    </g>
</svg>
