<svg xmlns="http://www.w3.org/2000/svg" width="29" height="25" viewBox="0 0 29 25">
    <g fill="#FFF" fill-rule="evenodd">
        <path d="M22.998 14.585c-.508 0-1.02-.539-1.02-1.09 0-.545.512-1.091 1.02-1.091.77 0 1.286.546 1.286 1.09 0 .552-.516 1.091-1.286 1.091m-5.654 0c-.511 0-1.028-.539-1.028-1.09 0-.545.517-1.091 1.028-1.091.778 0 1.287.546 1.287 1.09 0 .552-.51 1.091-1.287 1.091m11.565 1.366c0-4.362-4.112-7.916-8.73-7.916-4.89 0-8.742 3.554-8.742 7.916 0 4.369 3.852 7.916 8.742 7.916 1.023 0 2.056-.274 3.084-.547l2.82 1.638-.774-2.726c2.063-1.643 3.6-3.82 3.6-6.281"/>
        <path d="M6.898 7.301c-.766 0-1.539-.542-1.539-1.353 0-.814.773-1.35 1.539-1.35.766 0 1.275.536 1.275 1.35 0 .811-.51 1.353-1.275 1.353M14.049 4.6c.77 0 1.279.535 1.279 1.349 0 .811-.51 1.353-1.279 1.353-.766 0-1.534-.542-1.534-1.353 0-.814.768-1.35 1.534-1.35m5.494 2.933c.33 0 .659.025.984.064C19.643 3.238 15.24 0 10.217 0 4.601 0 0 4.051 0 9.197c0 2.971 1.53 5.41 4.088 7.302l-1.022 3.253 3.572-1.896c1.279.267 2.304.543 3.58.543.32 0 .638-.017.953-.043a8.494 8.494 0 0 1-.315-2.266c0-4.725 3.833-8.559 8.687-8.559"/>
    </g>
</svg>
