<svg xmlns="http://www.w3.org/2000/svg" width="29" height="24" viewBox="0 0 29 24">
    <g fill="#FFF" fill-rule="evenodd">
        <path d="M27.12 2.527C25.307.421 22.635-.382 20.17.168c-.571.128-.935.717-.813 1.314.122.598.683.98 1.253.852 1.755-.39 3.653.181 4.94 1.677 1.287 1.496 1.637 3.537 1.086 5.325-.18.583.125 1.207.68 1.395.555.188 1.15-.13 1.33-.711v-.005c.773-2.516.285-5.384-1.527-7.488M11.895 21.982c-4.687.48-8.734-1.723-9.038-4.925-.305-3.2 3.25-6.185 7.937-6.668 4.688-.482 8.735 1.722 9.039 4.922.304 3.203-3.25 6.188-7.938 6.67m9.376-10.626c-.398-.124-.672-.209-.463-.754.452-1.183.5-2.204.009-2.932-.92-1.366-3.435-1.292-6.317-.037 0-.001-.906.412-.674-.335.443-1.482.376-2.725-.314-3.442-1.564-1.628-5.723.062-9.29 3.77C1.551 10.406 0 13.35 0 15.896c0 4.871 6.005 7.832 11.88 7.832 7.7 0 12.824-4.654 12.824-8.349 0-2.232-1.808-3.5-3.433-4.023"/>
        <path d="M24.798 4.672c-.943-1.198-2.335-1.654-3.621-1.34-.526.128-.86.72-.748 1.322.113.6.63.986 1.154.855v.001c.628-.152 1.31.07 1.77.655.462.586.586 1.384.388 2.085h.001c-.165.585.115 1.213.626 1.403.511.187 1.06-.132 1.224-.718.404-1.432.152-3.065-.794-4.263M12.09 16.175c-.157.27-.504.4-.776.287-.267-.11-.35-.413-.199-.678.157-.264.49-.393.757-.286.27.1.368.405.218.677m-1.43 1.846c-.434.697-1.363 1.002-2.063.68-.69-.316-.893-1.125-.46-1.804.43-.677 1.328-.978 2.022-.685.703.301.928 1.105.501 1.809m1.63-4.93c-2.134-.56-4.547.511-5.475 2.404-.944 1.93-.03 4.074 2.126 4.775 2.234.725 4.868-.386 5.784-2.47.902-2.037-.225-4.135-2.434-4.71"/>
    </g>
</svg>
