<svg xmlns="http://www.w3.org/2000/svg" xmlns:xlink="http://www.w3.org/1999/xlink" width="404" height="404" viewBox="0 0 404 404">
    <defs>
        <path id="a" d="M.5.116h87.659V30.56H.499z"/>
    </defs>
    <g fill="none" fill-rule="evenodd">
        <circle cx="202" cy="202" r="202" fill="#F8F8F8"/>
        <g transform="translate(80 126)">
            <path fill="#002B5D" d="M9.902 160.671C4.433 160.671 0 156.23 0 150.75V9.922C0 4.442 4.433 0 9.902 0h224.195C239.567 0 244 4.443 244 9.922V150.75c0 5.48-4.434 9.922-9.903 9.922H9.902z"/>
            <path fill="#FFF" d="M0 142.104v8.902c0 5.48 4.433 9.921 9.903 9.921h224.194c5.47 0 9.903-4.441 9.903-9.92v-8.903H0z"/>
            <g transform="translate(77.775 160.44)">
                <mask id="b" fill="#fff">
                    <use xlink:href="#a"/>
                </mask>
                <path fill="#BEBEBE" d="M70.165.116H18.494s-3.026 19.508-16.71 25.93C1.007 26.412.5 27.264.5 28.21c0 1.298.939 2.351 2.097 2.351h83.464c1.158 0 2.098-1.053 2.098-2.351 0-.946-.507-1.798-1.285-2.162C73.19 19.624 70.164.117 70.164.117" mask="url(#b)"/>
            </g>
            <path fill="#E0E0E0" d="M79.823 185.864c-.778.365-1.285 1.217-1.285 2.162 0 1.299.939 2.351 2.098 2.351h83.463c1.16 0 2.099-1.052 2.099-2.351 0-.945-.508-1.797-1.286-2.162-8.047-3.778-12.406-12.078-14.633-18.277-8.666-2.145-18.119-3.327-28.016-3.327-9.81 0-19.183 1.159-27.785 3.27-2.222 6.204-6.583 14.545-14.655 18.334z"/>
            <path fill="#EDEDED" d="M232.47 132.936H12.278c-2.149 0-3.89-1.802-3.89-4.026V12.43c0-2.223 1.741-4.026 3.89-4.026H232.47c2.149 0 3.89 1.803 3.89 4.027v116.48c0 2.223-1.741 4.025-3.89 4.025"/>
            <path fill="#FFF" d="M37.78 8.404L8.387 37.854v26.592L64.32 8.404zM218.1 132.67l17.882-17.917V97.028a57802.532 57802.532 0 0 0-35.445 35.643H218.1z"/>
            <g fill="#002B5D">
                <path d="M70.193 49.736l13.33 12.96a3.318 3.318 0 0 1 0 4.785 3.551 3.551 0 0 1-4.921 0l-13.33-12.96-13.33 12.96a3.551 3.551 0 0 1-4.923 0 3.318 3.318 0 0 1 0-4.785l13.33-12.96-13.33-12.96a3.318 3.318 0 0 1 0-4.785 3.551 3.551 0 0 1 4.922 0l13.33 12.96 13.33-12.96a3.551 3.551 0 0 1 4.923 0 3.318 3.318 0 0 1 0 4.785l-13.33 12.96zM183.162 49.736l13.33 12.96a3.318 3.318 0 0 1 0 4.785 3.551 3.551 0 0 1-4.922 0l-13.33-12.96-13.33 12.96a3.551 3.551 0 0 1-4.922 0 3.318 3.318 0 0 1 0-4.785l13.33-12.96-13.33-12.96a3.318 3.318 0 0 1 0-4.785 3.551 3.551 0 0 1 4.922 0l13.33 12.96 13.33-12.96a3.551 3.551 0 0 1 4.922 0 3.318 3.318 0 0 1 0 4.785l-13.33 12.96z"/>
            </g>
            <rect width="58" height="7" x="93" y="102" fill="#002B5D" rx="3.5"/>
        </g>
    </g>
</svg>
